<?xml version="1.0" encoding="UTF-8" standalone="no"?><!DOCTYPE svg PUBLIC "-//W3C//DTD SVG 1.1//EN" "http://www.w3.org/Graphics/SVG/1.1/DTD/svg11.dtd"><svg width="100%" height="100%" viewBox="0 0 288 89" version="1.1" xmlns="http://www.w3.org/2000/svg" xmlns:xlink="http://www.w3.org/1999/xlink" xml:space="preserve" xmlns:serif="http://www.serif.com/" style="fill-rule:evenodd;clip-rule:evenodd;stroke-linejoin:round;stroke-miterlimit:1.41421;"><rect id="アートボード1" x="0" y="0" width="287.001" height="88.018" style="fill:none;"/><g><path d="M79.357,15.703l6.889,0l1.344,-1.824c0.696,0.624 1.296,1.272 1.8,1.944l-0.312,0.48l-9.721,0l0,6.265c0,1.176 -0.888,1.776 -2.712,1.752c-0.024,-0.576 -0.336,-0.96 -0.96,-1.176c-0.504,-0.168 -1.417,-0.36 -2.736,-0.576l0,-0.672c1.584,0.192 2.928,0.288 4.056,0.288c0.6,0 0.888,-0.264 0.888,-0.768l0,-5.113l-9.817,0l-0.264,-0.6l10.081,0l0,-4.177l-8.449,0l-0.264,-0.6l8.713,0l0,-4.272c-2.208,0.336 -4.896,0.6 -8.041,0.84l-0.24,-0.6c6.073,-0.672 10.945,-1.68 14.57,-3.024c1.2,0.672 1.776,1.176 1.776,1.488c0,0.144 -0.168,0.24 -0.528,0.24c-0.192,0 -0.504,-0.048 -0.96,-0.12c-1.632,0.384 -3.336,0.72 -5.113,0.96l0,4.488l5.545,0l1.272,-1.704c0.528,0.48 1.104,1.08 1.704,1.8l-0.264,0.504l-8.257,0l0,4.177Z" style="fill:#fff;fill-rule:nonzero;"/><path d="M92.58,16.183c1.368,0.312 2.016,0.624 2.016,0.912c0,0.144 -0.216,0.288 -0.696,0.408c-0.384,2.184 -1.08,4.032 -2.04,5.568l-0.552,-0.24c0.72,-1.871 1.128,-4.08 1.272,-6.648Zm5.113,-10.465c1.224,0.504 1.848,0.888 1.848,1.2c0,0.216 -0.336,0.36 -0.984,0.384c-1.2,2.04 -2.52,3.96 -3.984,5.784c1.656,-0.144 2.76,-0.288 3.336,-0.384c-0.216,-0.624 -0.456,-1.2 -0.816,-1.776l0.456,-0.312c1.392,1.32 2.064,2.568 2.064,3.769c0,0.648 -0.24,0.984 -0.768,0.984c-0.408,0 -0.648,-0.336 -0.672,-0.984c-0.024,-0.336 -0.072,-0.696 -0.12,-1.104l-0.528,0.144l-0.504,0.12l-0.504,0.12l0,11.065l-1.345,0l0,-10.753c-0.048,0.024 -0.12,0.024 -0.264,0.072c-0.552,0.12 -1.272,0.264 -2.16,0.432c-0.144,0.504 -0.288,0.768 -0.48,0.768c-0.264,0 -0.552,-0.648 -0.792,-1.944c0.504,-0.048 1.032,-0.072 1.584,-0.12c0.072,0 0.192,0 0.288,-0.024c0.264,-0.024 0.456,-0.024 0.504,-0.024c1.272,-2.041 2.568,-4.513 3.841,-7.417Zm-2.089,-2.736c1.296,0.408 1.944,0.768 1.944,1.08c0,0.192 -0.288,0.312 -0.864,0.36c-0.6,1.128 -1.32,2.328 -2.208,3.576c0.6,0.6 0.912,1.152 0.912,1.656c0,0.6 -0.24,0.888 -0.744,0.888c-0.312,0 -0.576,-0.264 -0.744,-0.768c-0.36,-1.032 -1.08,-1.992 -2.184,-2.904l0.264,-0.432c0.816,0.36 1.488,0.744 2.016,1.152c0.649,-1.368 1.176,-2.904 1.608,-4.608Zm4.153,17.401c0,0.6 -0.24,0.936 -0.744,1.032c-0.432,0 -0.672,-0.336 -0.72,-0.984c-0.096,-1.44 -0.528,-2.88 -1.296,-4.296l0.456,-0.264c1.536,1.632 2.304,3.144 2.304,4.512Zm8.016,-8.328l-8.833,0l-0.24,-0.6l4.993,0c0.36,-1.128 0.696,-2.616 1.008,-4.417c1.296,0.384 1.944,0.744 1.944,1.056c0,0.192 -0.264,0.312 -0.816,0.384c-0.456,1.152 -0.96,2.161 -1.464,2.977l3.36,0l0,-0.12c-0.096,-1.728 -0.144,-3.744 -0.168,-6l0,-2.16c1.464,0.096 2.184,0.312 2.184,0.648c0,0.192 -0.288,0.384 -0.864,0.576c0,2.952 0.048,5.064 0.096,6.384l0.024,0.504l2.064,0l0.984,-1.344c0.648,0.6 1.128,1.104 1.416,1.464l-0.24,0.48l-4.201,0c0.12,2.112 0.408,4.032 0.84,5.76c0.6,-1.368 1.08,-2.928 1.44,-4.68c1.176,0.504 1.752,0.888 1.752,1.152c0,0.192 -0.264,0.312 -0.792,0.36c-0.552,1.8 -1.2,3.384 -1.944,4.704c0.792,1.824 1.344,2.712 1.632,2.712c0.288,0 0.576,-1.272 0.888,-3.816l0.6,0.336c-0.12,1.32 -0.168,2.376 -0.168,3.168c0,0.96 0.192,1.584 0.576,1.872c-0.192,0.624 -0.528,0.936 -0.984,0.936c-0.48,0 -1.104,-0.48 -1.872,-1.488c-0.624,-0.792 -1.104,-1.608 -1.488,-2.424c-1.296,1.776 -2.952,3.168 -5.016,4.248l-0.336,-0.48c2.04,-1.392 3.672,-3.12 4.872,-5.112c-0.623,-2.064 -1.03,-4.416 -1.247,-7.08Zm-5.328,-8.905c1.488,0.024 2.208,0.216 2.208,0.528c0,0.192 -0.288,0.384 -0.912,0.6l0,1.992l1.128,0l0.888,-1.296c0.504,0.504 0.936,1.008 1.297,1.464l-0.288,0.432l-6.937,0l-0.264,-0.6l2.88,0l0,-3.12Zm0.12,7.152c0,0.648 -0.264,0.96 -0.816,0.96c-0.36,0 -0.552,-0.288 -0.576,-0.888c-0.024,-0.912 -0.288,-1.872 -0.84,-2.856l0.384,-0.288c1.248,0.96 1.848,1.992 1.848,3.072Zm2.16,3.817l0.792,-1.008c0.84,0.696 1.248,1.152 1.248,1.368c0,0.072 -0.048,0.168 -0.192,0.288l-0.432,0.312l0,7.225l-1.224,0l0,-0.96l-3.145,0l0,1.608l-1.272,0l0,-9.529c0.6,0.24 1.08,0.48 1.464,0.696l2.761,0Zm0.192,0.6l-3.145,0l0,2.664l3.145,0l0,-2.664Zm-3.144,3.264l0,2.76l3.145,0l0,-2.76l-3.145,0Zm10.921,-9.745c0,0.6 -0.264,0.912 -0.816,0.912c-0.432,0 -0.696,-0.336 -0.744,-1.008c-0.072,-1.008 -0.504,-2.016 -1.32,-3.024l0.36,-0.36c1.68,1.104 2.52,2.256 2.52,3.48Z" style="fill:#fff;fill-rule:nonzero;"/><path d="M130.261,17.287c0.528,-1.608 0.576,-3.192 0.408,-4.44c-0.144,-1.224 -0.48,-2.112 -1.32,-2.833c-0.864,-0.744 -1.92,-0.936 -2.904,-0.816c-1.008,0.144 -1.776,0.6 -2.329,1.128c-0.864,0.816 -1.2,1.776 -1.2,2.832c0,1.152 0.648,1.968 1.008,2.52c0.336,0.552 0.576,1.512 -0.048,1.848c-0.6,0.336 -1.32,-0.216 -1.848,-1.056c-0.528,-0.816 -0.792,-2.112 -0.84,-3.312c-0.072,-1.224 0.048,-2.52 0.312,-3.384c0.24,-0.864 0.384,-1.776 0.456,-2.64c0.048,-0.84 -0.24,-1.368 -0.624,-1.729c-0.312,-0.264 -0.48,-0.528 -0.408,-0.768c0.048,-0.216 0.48,-0.264 0.816,-0.168c0.336,0.12 0.672,0.192 1.272,0.984c0.6,0.792 0.48,1.968 0.168,2.832c-0.312,0.864 -0.816,1.872 -0.744,2.808c0.168,-0.408 0.432,-0.888 0.888,-1.296c0.576,-0.528 1.704,-1.248 2.952,-1.416c1.249,-0.168 2.521,0 3.601,0.864c0.768,0.625 1.608,1.488 2.016,3.072c0.432,1.705 0.36,2.76 0.168,4.009c-0.216,1.248 -0.528,2.256 -1.416,3.408c-0.888,1.176 -1.944,1.944 -3.048,2.472c-1.104,0.504 -2.088,0.792 -3.072,0.96c-0.96,0.168 -1.608,0.216 -1.992,0.192c-0.384,-0.024 -0.576,-0.144 -0.576,-0.264c0.024,-0.12 0.12,-0.216 0.48,-0.264c0.48,-0.048 1.008,-0.096 1.632,-0.24c1.536,-0.36 2.784,-0.912 3.888,-1.896c1.105,-0.983 1.8,-1.943 2.304,-3.407Z" style="fill:#fff;fill-rule:nonzero;"/><path d="M155.99,9.702l0.912,-1.032c0.936,0.72 1.416,1.2 1.416,1.392c0,0.096 -0.096,0.216 -0.264,0.384l-0.48,0.384l0,6.84l-1.368,0l0,-1.008l-5.041,0l0,2.88l7.057,0l1.344,-1.656c0.72,0.648 1.32,1.248 1.8,1.8l-0.288,0.456l-9.913,0l0,4.584l-1.416,0l0,-4.584l-9.769,0l-0.24,-0.6l10.009,0l0,-2.88l-5.017,0l0,1.152l-1.368,0l0,-8.855c0.888,0.408 1.417,0.648 1.608,0.744l11.018,0l0,-0.001Zm-15.722,-3l-0.24,-0.6l6.504,0l0,-2.832c1.536,0.072 2.304,0.24 2.304,0.576c0,0.192 -0.312,0.408 -0.96,0.648l0,1.608l5.088,0l0,-2.808c1.512,0.072 2.28,0.264 2.28,0.576c0,0.192 -0.312,0.408 -0.936,0.625l0,1.607l3.888,0l1.248,-1.56c0.624,0.6 1.176,1.152 1.656,1.704l-0.238,0.456l-6.552,0l0,2.112l-1.344,0l0,-2.112l-5.088,0l0,2.112l-1.344,0l0,-2.112l-6.266,0Zm15.938,3.6l-11.474,0l0,2.521l11.473,0l0,-2.521l0.001,0Zm-11.474,3.121l0,2.64l11.473,0l0,-2.64l-11.473,0Z" style="fill:#fff;fill-rule:nonzero;"/><path d="M175.165,24.728l-1.44,0l0,-12.361c-2.28,4.128 -5.4,7.44 -9.313,9.985l-0.432,-0.504c4.128,-3.24 7.177,-7.056 9.097,-11.449l-8.449,0l-0.192,-0.6l9.289,0l0,-6.145c1.68,0.024 2.52,0.24 2.52,0.624c0,0.216 -0.36,0.456 -1.08,0.696l0,4.824l6.385,0l1.392,-1.848c0.744,0.792 1.32,1.44 1.704,1.992l-0.264,0.456l-8.881,0c2.28,3.96 5.617,7.201 10.009,9.745c-0.456,0.336 -0.888,0.84 -1.296,1.512c-3.937,-2.832 -6.96,-6.312 -9.049,-10.441l0,13.514Z" style="fill:#fff;fill-rule:nonzero;"/><path d="M197.725,13.207c1.536,0.072 2.304,0.24 2.304,0.528c0,0.168 -0.288,0.384 -0.888,0.648l0,1.848l7.104,0l1.224,-1.392c0.48,0.384 1.032,0.888 1.632,1.536l-0.264,0.456l-9.312,0c2.616,2.256 5.928,3.936 9.96,5.016c-0.504,0.432 -0.864,0.912 -1.08,1.488c-3.792,-1.416 -6.864,-3.432 -9.265,-6.048l0,7.44l-1.416,0l0,-6.816c-2.568,2.592 -5.856,4.584 -9.865,5.904l-0.312,-0.552c3.84,-1.632 6.937,-3.769 9.265,-6.433l-8.473,0l-0.24,-0.6l9.625,0l0,-3.023l0.001,0Zm-6.48,-5.473c0,0.552 -0.264,0.816 -0.816,0.816c-0.264,0 -0.456,-0.192 -0.624,-0.552c-0.312,-0.72 -0.888,-1.296 -1.704,-1.704l0.216,-0.432c1.943,0.384 2.928,1.008 2.928,1.872Zm0.96,2.832c-0.336,0.552 -0.504,1.008 -0.504,1.368c0,0.048 0,0.168 0.048,0.432c0.144,0.696 0.216,1.32 0.216,1.872c0,0.72 -0.312,1.056 -0.936,1.056c-0.552,0 -0.84,-0.216 -0.84,-0.648c0,-0.048 0.072,-0.336 0.192,-0.816c0.144,-0.528 0.192,-0.96 0.192,-1.272c0,-0.552 -0.216,-0.96 -0.648,-1.176c-0.312,-0.144 -0.792,-0.24 -1.44,-0.312l0,-0.6c0.432,0.048 0.744,0.072 0.912,0.072c0.696,0 1.32,-0.312 1.92,-0.96c1.176,-1.248 2.424,-2.904 3.792,-4.993l0.48,0.432l-3.384,5.545Zm0.815,-5.472c0,0.528 -0.264,0.792 -0.768,0.792c-0.288,0 -0.528,-0.216 -0.696,-0.624c-0.24,-0.576 -0.84,-1.128 -1.752,-1.608l0.216,-0.432c2.017,0.36 3,0.984 3,1.872Zm2.113,2.232l-0.24,-0.6l4.057,0c0.024,-0.144 0.024,-0.336 0.024,-0.552l0,-2.976c1.56,0.072 2.328,0.264 2.328,0.576c0,0.216 -0.312,0.432 -0.936,0.672l0,2.208l2.304,0l0.864,-1.104c0.984,0.72 1.464,1.176 1.464,1.392c0,0.096 -0.072,0.168 -0.192,0.264l-0.576,0.336l0,4.249c0,0.432 0.408,0.648 1.248,0.648c0.792,0 1.272,-0.24 1.416,-0.696c0.192,-0.744 0.336,-1.752 0.408,-3.072l0.624,0.264c0.024,1.561 0.096,2.497 0.192,2.809c0.12,0.312 0.384,0.504 0.768,0.528c-0.024,0.576 -0.24,0.96 -0.648,1.152c-0.336,0.144 -1.128,0.216 -2.352,0.216c-1.416,0 -2.304,-0.12 -2.616,-0.336c-0.264,-0.216 -0.408,-0.576 -0.408,-1.152l0,-4.898l-2.544,0c-0.168,1.944 -0.792,3.552 -1.872,4.752c-1.008,1.176 -2.617,2.16 -4.752,3l-0.312,-0.552c3.384,-1.584 5.232,-3.96 5.544,-7.128l-3.793,0Z" style="fill:#fff;fill-rule:nonzero;"/></g><g><path d="M8.414,70.293c-0.977,1.563 -1.816,2.735 -2.52,3.516c-1.172,1.329 -2.149,1.992 -2.93,1.992c-0.508,0 -0.938,-0.253 -1.289,-0.762c-0.352,-0.507 -0.527,-1.015 -0.527,-1.523c0,-0.898 0.645,-1.855 1.934,-2.871c1.093,-0.82 2.207,-1.641 3.34,-2.461c0.078,-0.078 0.625,-0.859 1.641,-2.344c0.703,-1.055 1.406,-1.582 2.109,-1.582c0.234,0 0.352,0.176 0.352,0.527c0,0.547 -0.234,1.397 -0.703,2.549c-0.469,1.152 -0.938,2.138 -1.407,2.959Zm12.591,-24.2c-0.081,-0.586 -0.341,-1.074 -0.78,-1.465c-1,-0.938 -1.499,-1.582 -1.499,-1.934c0,-0.507 0.224,-0.888 0.674,-1.143c0.449,-0.253 1.26,-0.381 2.432,-0.381c1.172,0 2.148,0.215 2.93,0.645c0.781,0.43 1.172,1.192 1.172,2.285c0,0.313 -0.055,0.723 -0.165,1.23c-0.256,1.133 -0.384,1.719 -0.384,1.758c-0.146,0.82 -0.238,1.758 -0.275,2.812c-0.036,1.055 -0.055,2.09 -0.055,3.105l0,0.645c1.908,0 3.611,-0.088 5.11,-0.264c1.499,-0.176 2.871,-0.341 4.118,-0.498c0.661,0 1.674,-0.253 3.037,-0.762c0.74,-0.273 1.304,-0.41 1.694,-0.41c0.896,0 1.85,0.381 2.862,1.143c1.013,0.762 1.519,1.553 1.519,2.373c0,0.665 -0.245,1.104 -0.732,1.318c-0.489,0.215 -1.124,0.322 -1.904,0.322l-6.328,-0.176c-2.071,0 -4.16,0.01 -6.27,0.029c-2.109,0.02 -3.262,0.069 -3.457,0.146l0,1.113c0,1.915 0.059,4.805 0.176,8.672c0.117,3.867 0.176,6.758 0.176,8.672c0,0.743 -0.45,1.758 -1.348,3.047c-0.899,1.289 -1.661,1.934 -2.285,1.934c-0.508,0 -1.016,-0.469 -1.523,-1.406c-0.508,-1.093 -0.831,-1.796 -0.967,-2.109c-0.137,-0.312 -0.498,-0.771 -1.084,-1.377c-0.586,-0.605 -0.879,-1.123 -0.879,-1.553c0,-0.546 0.371,-0.82 1.113,-0.82c0.664,0 1.357,0.117 2.08,0.352c0.722,0.234 1.103,0.489 1.143,0.762l0,-16.99c-3.292,0.665 -6.565,1.329 -9.817,1.992c-0.706,0.196 -1.382,0.381 -2.029,0.557c-0.646,0.176 -1.342,0.264 -2.086,0.264c-0.706,0 -1.548,-0.517 -2.528,-1.553c-0.979,-1.035 -1.469,-1.884 -1.469,-2.549c0,-0.625 0.294,-0.938 0.882,-0.938c0.353,0 1.097,0.196 2.234,0.586c0.667,0.234 1.156,0.352 1.469,0.352c1.959,0 4.674,-0.264 8.142,-0.791c3.468,-0.527 5.203,-0.927 5.203,-1.201l0,-3.692c0,-0.781 -0.02,-1.542 -0.061,-2.285c-0.042,-0.742 -0.121,-1.348 -0.241,-1.817Zm20.866,19.043c0.898,0.625 1.67,1.504 2.314,2.637c0.645,1.133 0.967,2.208 0.967,3.223c0,0.665 -0.205,1.28 -0.615,1.846c-0.41,0.567 -0.928,0.85 -1.553,0.85c-0.782,0 -1.719,-0.839 -2.812,-2.52c-0.86,-1.328 -1.426,-2.148 -1.699,-2.461c-0.274,-0.312 -0.938,-0.917 -1.992,-1.816c-1.523,-1.289 -2.285,-2.304 -2.285,-3.047c0,-0.546 0.312,-0.82 0.938,-0.82c0.898,0 2.07,0.225 3.516,0.674c1.443,0.448 2.518,0.927 3.221,1.434Z" style="fill:#fff;fill-rule:nonzero;"/><path d="M81.129,47.441c-0.117,-0.469 -0.469,-1.025 -1.055,-1.67c-0.586,-0.645 -0.879,-1.044 -0.879,-1.201c0,-0.195 0.156,-0.361 0.469,-0.498c0.312,-0.136 0.703,-0.205 1.172,-0.205c1.289,0 2.675,0.284 4.16,0.85c1.484,0.567 2.227,1.143 2.227,1.729c0,0.157 -0.146,0.508 -0.439,1.055c-0.293,0.547 -0.469,0.967 -0.527,1.26c-0.058,0.293 -0.108,0.762 -0.146,1.406c-0.04,0.645 -0.059,1.221 -0.059,1.729l0.117,1.875l1.113,0c1.523,0 2.968,-0.048 4.336,-0.146c1.367,-0.097 2.675,-0.283 3.926,-0.557c0.312,-0.078 0.83,-0.283 1.553,-0.615c0.722,-0.332 1.143,-0.498 1.26,-0.498c0.586,0 1.523,0.645 2.812,1.934c1.289,1.289 1.934,2.227 1.934,2.812c0,0.43 -0.586,0.879 -1.758,1.348c-0.665,0.274 -1.055,0.567 -1.172,0.879c-0.703,1.797 -1.387,3.594 -2.051,5.391c-0.743,1.68 -2.305,4.2 -4.688,7.559c-2.735,3.79 -5.723,6.934 -8.965,9.434c-2.774,2.109 -4.825,3.164 -6.152,3.164c-0.508,0 -0.762,-0.176 -0.762,-0.527c1.484,-1.406 3.359,-3.281 5.625,-5.625c2.539,-2.617 4.96,-5.684 7.266,-9.199c1.093,-1.641 2.246,-3.838 3.457,-6.592c1.21,-2.754 1.816,-4.501 1.816,-5.244c0,-0.078 -0.02,-0.156 -0.059,-0.234c-0.04,-0.039 -0.079,-0.078 -0.117,-0.117c0,-0.156 -0.606,-0.273 -1.816,-0.352c-1.211,-0.078 -2.793,-0.117 -4.746,-0.117l-5.215,0.176c-2.461,0.196 -4.493,0.352 -6.094,0.469c-3.086,0.274 -4.629,0.469 -4.629,0.586c-0.117,0.196 -0.176,0.372 -0.176,0.527c0,1.25 0.312,3.105 0.938,5.566c0.625,2.461 0.938,4.024 0.938,4.688c0,0.86 -0.313,1.622 -0.938,2.285c-0.625,0.665 -1.368,0.996 -2.227,0.996c-0.586,0 -1.045,-0.352 -1.377,-1.055c-0.333,-0.703 -0.498,-1.641 -0.498,-2.812l0,-1.523c0,-1.601 -0.069,-3.018 -0.205,-4.248c-0.137,-1.23 -0.459,-2.529 -0.967,-3.896c-0.079,-0.625 -0.322,-1.396 -0.732,-2.314c-0.41,-0.917 -0.831,-1.865 -1.26,-2.842c0,-0.078 0.273,-0.136 0.82,-0.176c0.546,-0.039 0.879,-0.059 0.996,-0.059c1.484,0 2.617,0.352 3.398,1.055c0.781,0.703 1.386,1.055 1.816,1.055l0.234,0c2.421,-0.234 4.472,-0.449 6.152,-0.645c0.469,-0.039 1.113,-0.136 1.934,-0.293l0.059,-0.527c0,-0.781 -0.069,-1.758 -0.205,-2.93c-0.136,-1.177 -0.341,-2.212 -0.614,-3.111Z" style="fill:#fff;fill-rule:nonzero;"/><path d="M138.609,47.031c-0.86,-0.82 -1.514,-1.474 -1.963,-1.963c-0.45,-0.488 -0.674,-0.869 -0.674,-1.143c0,-0.39 0.507,-0.586 1.523,-0.586c1.367,0 2.675,0.254 3.926,0.762c1.679,0.703 2.52,1.641 2.52,2.812c0,0.274 -0.04,0.703 -0.117,1.289c-0.079,0.586 -0.117,1.016 -0.117,1.289c0,1.289 0.048,2.422 0.146,3.398c0.097,0.977 0.205,1.465 0.322,1.465c0.938,0 2.714,-0.312 5.332,-0.938c2.031,-0.469 3.32,-0.8 3.867,-0.996c0.039,-0.039 0.586,-0.332 1.641,-0.879c0.664,-0.352 1.152,-0.527 1.465,-0.527c0.429,0 1.25,0.313 2.461,0.938c1.21,0.625 1.816,1.133 1.816,1.523c0,0.782 -1.289,1.289 -3.867,1.523c-0.86,0.079 -1.739,0.167 -2.637,0.264c-0.899,0.098 -2.833,0.479 -5.801,1.143c-0.938,0.196 -2.285,0.508 -4.043,0.938l0.996,6.68c0.546,0 2.207,-0.264 4.98,-0.791c2.773,-0.527 5.391,-1.123 7.852,-1.787c0.156,-0.039 0.957,-0.39 2.402,-1.055c0.586,-0.273 1.055,-0.41 1.406,-0.41c0.781,0 1.777,0.254 2.988,0.762c1.21,0.508 1.816,1.075 1.816,1.699c0,0.899 -1.075,1.446 -3.223,1.641c-1.406,0.079 -2.812,0.137 -4.219,0.176c-2.852,0.469 -6.387,1.055 -10.605,1.758c-0.743,0.117 -1.719,0.274 -2.93,0.469c0,0.703 0.322,2.891 0.967,6.562c0.645,3.672 1.298,6.465 1.963,8.379l0,0.762c0,0.938 -0.174,1.758 -0.521,2.461c-0.463,0.938 -1.062,1.406 -1.795,1.406c-0.811,0 -1.438,-0.333 -1.881,-0.996c-0.444,-0.664 -0.666,-1.425 -0.666,-2.285c0,-1.601 -0.254,-4.589 -0.762,-8.965c-0.352,-2.227 -0.703,-4.453 -1.055,-6.68c-0.391,0 -1.954,0.381 -4.688,1.143c-2.735,0.762 -4.688,1.436 -5.859,2.021c-1.719,0.86 -2.852,1.289 -3.398,1.289c-0.938,0 -2.051,-0.332 -3.34,-0.996c-1.523,-0.781 -2.285,-1.562 -2.285,-2.344c0,-0.273 0.205,-0.449 0.615,-0.527c0.41,-0.078 0.732,-0.117 0.967,-0.117l3.574,0.176c2.304,-0.312 5.371,-0.938 9.199,-1.875c1.25,-0.273 2.89,-0.703 4.922,-1.289l-0.996,-6.621c-1.172,0 -3.243,0.557 -6.211,1.67c-2.969,1.113 -4.922,1.67 -5.859,1.67c-0.743,0 -1.758,-0.449 -3.047,-1.348c-1.446,-1.015 -2.168,-1.934 -2.168,-2.754c0,-0.352 0.176,-0.527 0.527,-0.527c0.273,0 0.996,0.117 2.168,0.352c1.172,0.235 2.109,0.352 2.812,0.352c1.367,0 3.281,-0.253 5.742,-0.762c2.461,-0.507 4.336,-1.055 5.625,-1.641c-0.079,-1.289 -0.157,-2.285 -0.234,-2.988c-0.31,-2.15 -0.837,-3.81 -1.579,-4.982Z" style="fill:#fff;fill-rule:nonzero;"/><path d="M215.367,47.089c-0.898,-0.938 -1.562,-1.621 -1.992,-2.051c-0.781,-0.82 -1.172,-1.367 -1.172,-1.641c0,-0.273 0.156,-0.41 0.469,-0.41c1.367,0 2.871,0.577 4.512,1.729c1.641,1.153 2.461,2.413 2.461,3.779c0,1.016 -0.312,1.523 -0.938,1.523c-0.469,0 -1.035,-0.332 -1.699,-0.996c-0.313,-0.272 -0.86,-0.916 -1.641,-1.933Zm5.801,-3.691c-0.898,-0.586 -1.543,-1.035 -1.934,-1.348c-0.742,-0.586 -1.113,-1.093 -1.113,-1.523c0,-0.429 0.195,-0.645 0.586,-0.645c1.523,0 3.008,0.45 4.453,1.348c1.68,1.055 2.52,2.305 2.52,3.75c0,0.352 -0.098,0.694 -0.293,1.025c-0.195,0.333 -0.449,0.498 -0.762,0.498c-0.43,0 -0.967,-0.352 -1.611,-1.055c-0.644,-0.703 -1.26,-1.385 -1.846,-2.05Zm-33.219,30.925c-0.977,1.563 -1.816,2.735 -2.52,3.516c-1.172,1.329 -2.148,1.992 -2.93,1.992c-0.508,0 -0.938,-0.253 -1.289,-0.762c-0.352,-0.507 -0.527,-1.015 -0.527,-1.523c0,-0.898 0.645,-1.855 1.934,-2.871c1.094,-0.82 2.207,-1.641 3.34,-2.461c0.078,-0.078 0.625,-0.859 1.641,-2.344c0.703,-1.055 1.406,-1.582 2.109,-1.582c0.234,0 0.352,0.176 0.352,0.527c0,0.547 -0.234,1.397 -0.703,2.549c-0.469,1.153 -0.938,2.139 -1.407,2.959Zm12.592,-24.199c-0.081,-0.586 -0.342,-1.074 -0.781,-1.465c-0.999,-0.938 -1.498,-1.582 -1.498,-1.934c0,-0.507 0.225,-0.888 0.674,-1.143c0.449,-0.253 1.26,-0.381 2.432,-0.381c1.172,0 2.148,0.215 2.93,0.645c0.781,0.43 1.172,1.192 1.172,2.285c0,0.313 -0.055,0.723 -0.165,1.23c-0.256,1.133 -0.384,1.719 -0.384,1.758c-0.146,0.82 -0.238,1.758 -0.275,2.812c-0.036,1.055 -0.055,2.09 -0.055,3.105l0,0.645c1.908,0 3.611,-0.088 5.11,-0.264c1.499,-0.176 2.871,-0.341 4.118,-0.498c0.661,0 1.674,-0.253 3.037,-0.762c0.739,-0.273 1.303,-0.41 1.693,-0.41c0.896,0 1.85,0.381 2.861,1.143c1.014,0.762 1.52,1.553 1.52,2.373c0,0.665 -0.244,1.104 -0.732,1.318c-0.488,0.215 -1.123,0.322 -1.904,0.322l-6.328,-0.176c-2.07,0 -4.16,0.01 -6.27,0.029c-2.109,0.02 -3.262,0.069 -3.457,0.146l0,1.113c0,1.915 0.059,4.805 0.176,8.672c0.117,3.867 0.176,6.758 0.176,8.672c0,0.743 -0.449,1.758 -1.348,3.047c-0.899,1.289 -1.66,1.934 -2.285,1.934c-0.508,0 -1.016,-0.469 -1.523,-1.406c-0.508,-1.093 -0.83,-1.796 -0.967,-2.109c-0.137,-0.312 -0.498,-0.771 -1.084,-1.377c-0.586,-0.605 -0.879,-1.123 -0.879,-1.553c0,-0.546 0.371,-0.82 1.113,-0.82c0.664,0 1.357,0.117 2.08,0.352c0.723,0.235 1.104,0.489 1.143,0.762l0,-16.991c-3.292,0.665 -6.565,1.329 -9.817,1.992c-0.706,0.196 -1.382,0.381 -2.028,0.557c-0.646,0.176 -1.342,0.264 -2.087,0.264c-0.706,0 -1.548,-0.517 -2.528,-1.553c-0.979,-1.035 -1.469,-1.884 -1.469,-2.549c0,-0.625 0.294,-0.938 0.882,-0.938c0.353,0 1.097,0.196 2.233,0.586c0.667,0.234 1.156,0.352 1.47,0.352c1.959,0 4.674,-0.264 8.142,-0.791c3.469,-0.527 5.203,-0.927 5.203,-1.201l0,-3.692c0,-0.781 -0.02,-1.542 -0.061,-2.285c-0.042,-0.741 -0.121,-1.347 -0.24,-1.816Zm20.865,19.043c0.898,0.625 1.67,1.504 2.314,2.637c0.645,1.133 0.967,2.208 0.967,3.223c0,0.665 -0.205,1.28 -0.615,1.846c-0.41,0.567 -0.928,0.85 -1.553,0.85c-0.781,0 -1.719,-0.839 -2.812,-2.52c-0.859,-1.328 -1.426,-2.148 -1.699,-2.461c-0.273,-0.312 -0.938,-0.917 -1.992,-1.816c-1.523,-1.289 -2.285,-2.304 -2.285,-3.047c0,-0.546 0.312,-0.82 0.938,-0.82c0.898,0 2.07,0.225 3.516,0.674c1.444,0.448 2.518,0.927 3.221,1.434Z" style="fill:#fff;fill-rule:nonzero;"/><path d="M251.988,63.086c-0.547,0 -1.709,-1.093 -3.486,-3.281c-1.777,-2.187 -2.666,-3.476 -2.666,-3.867l0.586,-0.176c1.367,0 2.93,0.372 4.688,1.113c2.188,0.938 3.281,1.954 3.281,3.047c0,1.329 -0.156,2.129 -0.469,2.402c-0.664,0.234 -1.309,0.489 -1.934,0.762Zm5.508,16.23c-0.352,0.352 -0.781,0.527 -1.289,0.527c-1.133,0 -2.393,-0.674 -3.779,-2.021c-1.386,-1.347 -2.08,-2.47 -2.08,-3.369c0,-0.429 0.215,-0.645 0.645,-0.645c0.312,0 0.938,0.137 1.875,0.41c0.938,0.274 1.562,0.41 1.875,0.41c2.5,-0.429 6.328,-2.539 11.484,-6.328c3.164,-2.344 7.402,-5.781 12.715,-10.312c4.258,-3.633 6.543,-5.449 6.855,-5.449c0.234,0 0.352,0.157 0.352,0.469c0,0.665 -0.84,1.954 -2.52,3.867c-1.484,1.68 -3.418,3.653 -5.801,5.918c-2.031,1.954 -4.18,3.926 -6.445,5.918c-1.719,1.523 -5,4.004 -9.844,7.441c-2.109,1.485 -3.457,2.539 -4.043,3.164Zm5.039,-26.777c-1.172,-0.664 -2.373,-1.738 -3.604,-3.223c-1.23,-1.484 -1.846,-2.461 -1.846,-2.93l0.234,-0.176l0.41,0.059c1.992,0 3.652,0.293 4.98,0.879c1.914,0.82 2.871,2.09 2.871,3.809c0,1.368 -0.508,2.051 -1.523,2.051c-0.389,-0.001 -0.897,-0.156 -1.522,-0.469Z" style="fill:#fff;fill-rule:nonzero;"/></g></svg>