<svg viewBox="0 0 288 89" xmlns="http://www.w3.org/2000/svg" fill-rule="evenodd" clip-rule="evenodd" stroke-linejoin="round" stroke-miterlimit="1.414"><path fill="none" d="M0 0h287.001v88.018H0z"/><path d="M79.357 15.703h6.889l1.344-1.824a13.509 13.509 0 0 1 1.8 1.944l-.312.48h-9.721v6.265c0 1.176-.888 1.776-2.712 1.752-.024-.576-.336-.96-.96-1.176-.504-.168-1.417-.36-2.736-.576v-.672c1.584.192 2.928.288 4.056.288.6 0 .888-.264.888-.768v-5.113h-9.817l-.264-.6h10.081v-4.177h-8.449l-.264-.6h8.713V6.654c-2.208.336-4.896.6-8.041.84l-.24-.6c6.073-.672 10.945-1.68 14.57-3.024 1.2.672 1.776 1.176 1.776 1.488 0 .144-.168.24-.528.24-.192 0-.504-.048-.96-.12-1.632.384-3.336.72-5.113.96v4.488h5.545l1.272-1.704c.528.48 1.104 1.08 1.704 1.8l-.264.504h-8.257v4.177zm13.223.48c1.368.312 2.016.624 2.016.912 0 .144-.216.288-.696.408-.384 2.184-1.08 4.032-2.04 5.568l-.552-.24c.72-1.871 1.128-4.08 1.272-6.648zm5.113-10.465c1.224.504 1.848.888 1.848 1.2 0 .216-.336.36-.984.384-1.2 2.04-2.52 3.96-3.984 5.784 1.656-.144 2.76-.288 3.336-.384-.216-.624-.456-1.2-.816-1.776l.456-.312c1.392 1.32 2.064 2.568 2.064 3.769 0 .648-.24.984-.768.984-.408 0-.648-.336-.672-.984-.024-.336-.072-.696-.12-1.104l-.528.144-.504.12-.504.12v11.065h-1.345V13.975c-.048.024-.12.024-.264.072-.552.12-1.272.264-2.16.432-.144.504-.288.768-.48.768-.264 0-.552-.648-.792-1.944.504-.048 1.032-.072 1.584-.12.072 0 .192 0 .288-.024.264-.024.456-.024.504-.024 1.272-2.041 2.568-4.513 3.841-7.417zm-2.089-2.736c1.296.408 1.944.768 1.944 1.08 0 .192-.288.312-.864.36a32.317 32.317 0 0 1-2.208 3.576c.6.6.912 1.152.912 1.656 0 .6-.24.888-.744.888-.312 0-.576-.264-.744-.768-.36-1.032-1.08-1.992-2.184-2.904l.264-.432c.816.36 1.488.744 2.016 1.152.649-1.368 1.176-2.904 1.608-4.608zm4.153 17.401c0 .6-.24.936-.744 1.032-.432 0-.672-.336-.72-.984-.096-1.44-.528-2.88-1.296-4.296l.456-.264c1.536 1.632 2.304 3.144 2.304 4.512zm8.016-8.328H98.94l-.24-.6h4.993c.36-1.128.696-2.616 1.008-4.417 1.296.384 1.944.744 1.944 1.056 0 .192-.264.312-.816.384-.456 1.152-.96 2.161-1.464 2.977h3.36v-.12c-.096-1.728-.144-3.744-.168-6v-2.16c1.464.096 2.184.312 2.184.648 0 .192-.288.384-.864.576 0 2.952.048 5.064.096 6.384l.024.504h2.064l.984-1.344c.648.6 1.128 1.104 1.416 1.464l-.24.48h-4.201c.12 2.112.408 4.032.84 5.76.6-1.368 1.08-2.928 1.44-4.68 1.176.504 1.752.888 1.752 1.152 0 .192-.264.312-.792.36-.552 1.8-1.2 3.384-1.944 4.704.792 1.824 1.344 2.712 1.632 2.712.288 0 .576-1.272.888-3.816l.6.336a35.953 35.953 0 0 0-.168 3.168c0 .96.192 1.584.576 1.872-.192.624-.528.936-.984.936-.48 0-1.104-.48-1.872-1.488a12.453 12.453 0 0 1-1.488-2.424c-1.296 1.776-2.952 3.168-5.016 4.248l-.336-.48c2.04-1.392 3.672-3.12 4.872-5.112-.623-2.064-1.03-4.416-1.247-7.08zm-5.328-8.905c1.488.024 2.208.216 2.208.528 0 .192-.288.384-.912.6V6.27h1.128l.888-1.296c.504.504.936 1.008 1.297 1.464l-.288.432h-6.937l-.264-.6h2.88V3.15zm.12 7.152c0 .648-.264.96-.816.96-.36 0-.552-.288-.576-.888-.024-.912-.288-1.872-.84-2.856l.384-.288c1.248.96 1.848 1.992 1.848 3.072zm2.16 3.817l.792-1.008c.84.696 1.248 1.152 1.248 1.368 0 .072-.048.168-.192.288l-.432.312v7.225h-1.224v-.96h-3.145v1.608H100.5v-9.529c.6.24 1.08.48 1.464.696h2.761zm.192.6h-3.145v2.664h3.145v-2.664zm-3.144 3.264v2.76h3.145v-2.76h-3.145zm10.921-9.745c0 .6-.264.912-.816.912-.432 0-.696-.336-.744-1.008-.072-1.008-.504-2.016-1.32-3.024l.36-.36c1.68 1.104 2.52 2.256 2.52 3.48zm17.567 9.049c.528-1.608.576-3.192.408-4.44-.144-1.224-.48-2.112-1.32-2.833-.864-.744-1.92-.936-2.904-.816a4.187 4.187 0 0 0-2.329 1.128c-.864.816-1.2 1.776-1.2 2.832 0 1.152.648 1.968 1.008 2.52.336.552.576 1.512-.048 1.848-.6.336-1.32-.216-1.848-1.056-.528-.816-.792-2.112-.84-3.312-.072-1.224.048-2.52.312-3.384.24-.864.384-1.776.456-2.64.048-.84-.24-1.368-.624-1.729-.312-.264-.48-.528-.408-.768.048-.216.48-.264.816-.168.336.12.672.192 1.272.984s.48 1.968.168 2.832c-.312.864-.816 1.872-.744 2.808.168-.408.432-.888.888-1.296.576-.528 1.704-1.248 2.952-1.416 1.249-.168 2.521 0 3.601.864.768.625 1.608 1.488 2.016 3.072.432 1.705.36 2.76.168 4.009-.216 1.248-.528 2.256-1.416 3.408a8.133 8.133 0 0 1-3.048 2.472 12.143 12.143 0 0 1-3.072.96c-.96.168-1.608.216-1.992.192-.384-.024-.576-.144-.576-.264.024-.12.12-.216.48-.264.48-.048 1.008-.096 1.632-.24 1.536-.36 2.784-.912 3.888-1.896 1.105-.983 1.8-1.943 2.304-3.407zm25.729-7.585l.912-1.032c.936.72 1.416 1.2 1.416 1.392 0 .096-.096.216-.264.384l-.48.384v6.84h-1.368v-1.008h-5.041v2.88h7.057l1.344-1.656c.72.648 1.32 1.248 1.8 1.8l-.288.456h-9.913v4.584h-1.416v-4.584h-9.769l-.24-.6h10.009v-2.88h-5.017v1.152h-1.368V8.959c.888.408 1.417.648 1.608.744h11.018v-.001zm-15.722-3l-.24-.6h6.504V3.27c1.536.072 2.304.24 2.304.576 0 .192-.312.408-.96.648v1.608h5.088V3.294c1.512.072 2.28.264 2.28.576 0 .192-.312.408-.936.625v1.607h3.888l1.248-1.56c.624.6 1.176 1.152 1.656 1.704l-.238.456h-6.552v2.112h-1.344V6.702h-5.088v2.112h-1.344V6.702h-6.266zm15.938 3.6h-11.474v2.521h11.473v-2.521h.001zm-11.474 3.121v2.64h11.473v-2.64h-11.473zm30.433 11.305h-1.44V12.367c-2.28 4.128-5.4 7.44-9.313 9.985l-.432-.504c4.128-3.24 7.177-7.056 9.097-11.449h-8.449l-.192-.6h9.289V3.654c1.68.024 2.52.24 2.52.624 0 .216-.36.456-1.08.696v4.824h6.385l1.392-1.848c.744.792 1.32 1.44 1.704 1.992l-.264.456h-8.881c2.28 3.96 5.617 7.201 10.009 9.745-.456.336-.888.84-1.296 1.512-3.937-2.832-6.96-6.312-9.049-10.441v13.514zm22.56-11.521c1.536.072 2.304.24 2.304.528 0 .168-.288.384-.888.648v1.848h7.104l1.224-1.392c.48.384 1.032.888 1.632 1.536l-.264.456h-9.312c2.616 2.256 5.928 3.936 9.96 5.016-.504.432-.864.912-1.08 1.488-3.792-1.416-6.864-3.432-9.265-6.048v7.44h-1.416v-6.816c-2.568 2.592-5.856 4.584-9.865 5.904l-.312-.552c3.84-1.632 6.937-3.769 9.265-6.433h-8.473l-.24-.6h9.625v-3.023h.001zm-6.48-5.473c0 .552-.264.816-.816.816-.264 0-.456-.192-.624-.552-.312-.72-.888-1.296-1.704-1.704l.216-.432c1.943.384 2.928 1.008 2.928 1.872zm.96 2.832c-.336.552-.504 1.008-.504 1.368 0 .048 0 .168.048.432a9.34 9.34 0 0 1 .216 1.872c0 .72-.312 1.056-.936 1.056-.552 0-.84-.216-.84-.648 0-.048.072-.336.192-.816.144-.528.192-.96.192-1.272 0-.552-.216-.96-.648-1.176-.312-.144-.792-.24-1.44-.312v-.6c.432.048.744.072.912.072.696 0 1.32-.312 1.92-.96 1.176-1.248 2.424-2.904 3.792-4.993l.48.432-3.384 5.545zm.815-5.472c0 .528-.264.792-.768.792-.288 0-.528-.216-.696-.624-.24-.576-.84-1.128-1.752-1.608l.216-.432c2.017.36 3 .984 3 1.872zm2.113 2.232l-.24-.6h4.057c.024-.144.024-.336.024-.552V3.198c1.56.072 2.328.264 2.328.576 0 .216-.312.432-.936.672v2.208h2.304l.864-1.104c.984.72 1.464 1.176 1.464 1.392 0 .096-.072.168-.192.264l-.576.336v4.249c0 .432.408.648 1.248.648.792 0 1.272-.24 1.416-.696.192-.744.336-1.752.408-3.072l.624.264c.024 1.561.096 2.497.192 2.809.12.312.384.504.768.528-.024.576-.24.96-.648 1.152-.336.144-1.128.216-2.352.216-1.416 0-2.304-.12-2.616-.336-.264-.216-.408-.576-.408-1.152V7.254h-2.544c-.168 1.944-.792 3.552-1.872 4.752-1.008 1.176-2.617 2.16-4.752 3l-.312-.552c3.384-1.584 5.232-3.96 5.544-7.128h-3.793zM8.414 70.293c-.977 1.563-1.816 2.735-2.52 3.516-1.172 1.329-2.149 1.992-2.93 1.992-.508 0-.938-.253-1.289-.762-.352-.507-.527-1.015-.527-1.523 0-.898.645-1.855 1.934-2.871 1.093-.82 2.207-1.641 3.34-2.461.078-.078.625-.859 1.641-2.344.703-1.055 1.406-1.582 2.109-1.582.234 0 .352.176.352.527 0 .547-.234 1.397-.703 2.549s-.938 2.138-1.407 2.959zm12.591-24.2a2.329 2.329 0 0 0-.78-1.465c-1-.938-1.499-1.582-1.499-1.934 0-.507.224-.888.674-1.143.449-.253 1.26-.381 2.432-.381s2.148.215 2.93.645c.781.43 1.172 1.192 1.172 2.285 0 .313-.055.723-.165 1.23-.256 1.133-.384 1.719-.384 1.758-.146.82-.238 1.758-.275 2.812a91.102 91.102 0 0 0-.055 3.105v.645c1.908 0 3.611-.088 5.11-.264 1.499-.176 2.871-.341 4.118-.498.661 0 1.674-.253 3.037-.762.74-.273 1.304-.41 1.694-.41.896 0 1.85.381 2.862 1.143 1.013.762 1.519 1.553 1.519 2.373 0 .665-.245 1.104-.732 1.318-.489.215-1.124.322-1.904.322l-6.328-.176c-2.071 0-4.16.01-6.27.029-2.109.02-3.262.069-3.457.146v1.113c0 1.915.059 4.805.176 8.672.117 3.867.176 6.758.176 8.672 0 .743-.45 1.758-1.348 3.047-.899 1.289-1.661 1.934-2.285 1.934-.508 0-1.016-.469-1.523-1.406a126.728 126.728 0 0 1-.967-2.109c-.137-.312-.498-.771-1.084-1.377-.586-.605-.879-1.123-.879-1.553 0-.546.371-.82 1.113-.82a6.72 6.72 0 0 1 2.08.352c.722.234 1.103.489 1.143.762v-16.99c-3.292.665-6.565 1.329-9.817 1.992-.706.196-1.382.381-2.029.557a7.914 7.914 0 0 1-2.086.264c-.706 0-1.548-.517-2.528-1.553-.979-1.035-1.469-1.884-1.469-2.549 0-.625.294-.938.882-.938.353 0 1.097.196 2.234.586.667.234 1.156.352 1.469.352 1.959 0 4.674-.264 8.142-.791 3.468-.527 5.203-.927 5.203-1.201v-3.692c0-.781-.02-1.542-.061-2.285-.042-.742-.121-1.348-.241-1.817zm20.866 19.043c.898.625 1.67 1.504 2.314 2.637.645 1.133.967 2.208.967 3.223 0 .665-.205 1.28-.615 1.846-.41.567-.928.85-1.553.85-.782 0-1.719-.839-2.812-2.52-.86-1.328-1.426-2.148-1.699-2.461-.274-.312-.938-.917-1.992-1.816-1.523-1.289-2.285-2.304-2.285-3.047 0-.546.312-.82.938-.82.898 0 2.07.225 3.516.674 1.443.448 2.518.927 3.221 1.434zm39.258-17.695c-.117-.469-.469-1.025-1.055-1.67s-.879-1.044-.879-1.201c0-.195.156-.361.469-.498.312-.136.703-.205 1.172-.205 1.289 0 2.675.284 4.16.85 1.484.567 2.227 1.143 2.227 1.729 0 .157-.146.508-.439 1.055-.293.547-.469.967-.527 1.26-.058.293-.108.762-.146 1.406-.04.645-.059 1.221-.059 1.729l.117 1.875h1.113c1.523 0 2.968-.048 4.336-.146a27.392 27.392 0 0 0 3.926-.557c.312-.078.83-.283 1.553-.615.722-.332 1.143-.498 1.26-.498.586 0 1.523.645 2.812 1.934s1.934 2.227 1.934 2.812c0 .43-.586.879-1.758 1.348-.665.274-1.055.567-1.172.879a304.244 304.244 0 0 0-2.051 5.391c-.743 1.68-2.305 4.2-4.688 7.559-2.735 3.79-5.723 6.934-8.965 9.434-2.774 2.109-4.825 3.164-6.152 3.164-.508 0-.762-.176-.762-.527 1.484-1.406 3.359-3.281 5.625-5.625 2.539-2.617 4.96-5.684 7.266-9.199 1.093-1.641 2.246-3.838 3.457-6.592 1.21-2.754 1.816-4.501 1.816-5.244a.52.52 0 0 0-.059-.234 6.453 6.453 0 0 1-.117-.117c0-.156-.606-.273-1.816-.352-1.211-.078-2.793-.117-4.746-.117l-5.215.176c-2.461.196-4.493.352-6.094.469-3.086.274-4.629.469-4.629.586-.117.196-.176.372-.176.527 0 1.25.312 3.105.938 5.566.625 2.461.938 4.024.938 4.688 0 .86-.313 1.622-.938 2.285-.625.665-1.368.996-2.227.996-.586 0-1.045-.352-1.377-1.055-.333-.703-.498-1.641-.498-2.812v-1.523c0-1.601-.069-3.018-.205-4.248-.137-1.23-.459-2.529-.967-3.896-.079-.625-.322-1.396-.732-2.314-.41-.917-.831-1.865-1.26-2.842 0-.078.273-.136.82-.176.546-.039.879-.059.996-.059 1.484 0 2.617.352 3.398 1.055.781.703 1.386 1.055 1.816 1.055h.234c2.421-.234 4.472-.449 6.152-.645.469-.039 1.113-.136 1.934-.293l.059-.527c0-.781-.069-1.758-.205-2.93-.136-1.177-.341-2.212-.614-3.111zm57.48-.41a44.511 44.511 0 0 1-1.963-1.963c-.45-.488-.674-.869-.674-1.143 0-.39.507-.586 1.523-.586 1.367 0 2.675.254 3.926.762 1.679.703 2.52 1.641 2.52 2.812 0 .274-.04.703-.117 1.289-.079.586-.117 1.016-.117 1.289 0 1.289.048 2.422.146 3.398.097.977.205 1.465.322 1.465.938 0 2.714-.312 5.332-.938 2.031-.469 3.32-.8 3.867-.996.039-.039.586-.332 1.641-.879.664-.352 1.152-.527 1.465-.527.429 0 1.25.313 2.461.938 1.21.625 1.816 1.133 1.816 1.523 0 .782-1.289 1.289-3.867 1.523-.86.079-1.739.167-2.637.264-.899.098-2.833.479-5.801 1.143-.938.196-2.285.508-4.043.938l.996 6.68c.546 0 2.207-.264 4.98-.791a106.545 106.545 0 0 0 7.852-1.787c.156-.039.957-.39 2.402-1.055.586-.273 1.055-.41 1.406-.41.781 0 1.777.254 2.988.762 1.21.508 1.816 1.075 1.816 1.699 0 .899-1.075 1.446-3.223 1.641-1.406.079-2.812.137-4.219.176-2.852.469-6.387 1.055-10.605 1.758-.743.117-1.719.274-2.93.469 0 .703.322 2.891.967 6.562.645 3.672 1.298 6.465 1.963 8.379v.762c0 .938-.174 1.758-.521 2.461-.463.938-1.062 1.406-1.795 1.406-.811 0-1.438-.333-1.881-.996-.444-.664-.666-1.425-.666-2.285 0-1.601-.254-4.589-.762-8.965l-1.055-6.68c-.391 0-1.954.381-4.688 1.143-2.735.762-4.688 1.436-5.859 2.021-1.719.86-2.852 1.289-3.398 1.289-.938 0-2.051-.332-3.34-.996-1.523-.781-2.285-1.562-2.285-2.344 0-.273.205-.449.615-.527.41-.078.732-.117.967-.117l3.574.176c2.304-.312 5.371-.938 9.199-1.875 1.25-.273 2.89-.703 4.922-1.289l-.996-6.621c-1.172 0-3.243.557-6.211 1.67-2.969 1.113-4.922 1.67-5.859 1.67-.743 0-1.758-.449-3.047-1.348-1.446-1.015-2.168-1.934-2.168-2.754 0-.352.176-.527.527-.527.273 0 .996.117 2.168.352 1.172.235 2.109.352 2.812.352 1.367 0 3.281-.253 5.742-.762 2.461-.507 4.336-1.055 5.625-1.641a66.975 66.975 0 0 0-.234-2.988c-.31-2.15-.837-3.81-1.579-4.982zm76.758.058a144.723 144.723 0 0 0-1.992-2.051c-.781-.82-1.172-1.367-1.172-1.641 0-.273.156-.41.469-.41 1.367 0 2.871.577 4.512 1.729 1.641 1.153 2.461 2.413 2.461 3.779 0 1.016-.312 1.523-.938 1.523-.469 0-1.035-.332-1.699-.996-.313-.272-.86-.916-1.641-1.933zm5.801-3.691c-.898-.586-1.543-1.035-1.934-1.348-.742-.586-1.113-1.093-1.113-1.523 0-.429.195-.645.586-.645 1.523 0 3.008.45 4.453 1.348 1.68 1.055 2.52 2.305 2.52 3.75 0 .352-.098.694-.293 1.025-.195.333-.449.498-.762.498-.43 0-.967-.352-1.611-1.055s-1.26-1.385-1.846-2.05zm-33.219 30.925c-.977 1.563-1.816 2.735-2.52 3.516-1.172 1.329-2.148 1.992-2.93 1.992-.508 0-.938-.253-1.289-.762-.352-.507-.527-1.015-.527-1.523 0-.898.645-1.855 1.934-2.871 1.094-.82 2.207-1.641 3.34-2.461.078-.078.625-.859 1.641-2.344.703-1.055 1.406-1.582 2.109-1.582.234 0 .352.176.352.527 0 .547-.234 1.397-.703 2.549-.469 1.153-.938 2.139-1.407 2.959zm12.592-24.199a2.33 2.33 0 0 0-.781-1.465c-.999-.938-1.498-1.582-1.498-1.934 0-.507.225-.888.674-1.143.449-.253 1.26-.381 2.432-.381s2.148.215 2.93.645c.781.43 1.172 1.192 1.172 2.285 0 .313-.055.723-.165 1.23-.256 1.133-.384 1.719-.384 1.758-.146.82-.238 1.758-.275 2.812a91.102 91.102 0 0 0-.055 3.105v.645c1.908 0 3.611-.088 5.11-.264 1.499-.176 2.871-.341 4.118-.498.661 0 1.674-.253 3.037-.762.739-.273 1.303-.41 1.693-.41.896 0 1.85.381 2.861 1.143 1.014.762 1.52 1.553 1.52 2.373 0 .665-.244 1.104-.732 1.318-.488.215-1.123.322-1.904.322l-6.328-.176c-2.07 0-4.16.01-6.27.029-2.109.02-3.262.069-3.457.146v1.113c0 1.915.059 4.805.176 8.672.117 3.867.176 6.758.176 8.672 0 .743-.449 1.758-1.348 3.047-.899 1.289-1.66 1.934-2.285 1.934-.508 0-1.016-.469-1.523-1.406-.508-1.093-.83-1.796-.967-2.109-.137-.312-.498-.771-1.084-1.377-.586-.605-.879-1.123-.879-1.553 0-.546.371-.82 1.113-.82a6.72 6.72 0 0 1 2.08.352c.723.235 1.104.489 1.143.762V61.198c-3.292.665-6.565 1.329-9.817 1.992-.706.196-1.382.381-2.028.557a7.916 7.916 0 0 1-2.087.264c-.706 0-1.548-.517-2.528-1.553-.979-1.035-1.469-1.884-1.469-2.549 0-.625.294-.938.882-.938.353 0 1.097.196 2.233.586.667.234 1.156.352 1.47.352 1.959 0 4.674-.264 8.142-.791 3.469-.527 5.203-.927 5.203-1.201v-3.692c0-.781-.02-1.542-.061-2.285-.042-.741-.121-1.347-.24-1.816zm20.865 19.043c.898.625 1.67 1.504 2.314 2.637.645 1.133.967 2.208.967 3.223 0 .665-.205 1.28-.615 1.846-.41.567-.928.85-1.553.85-.781 0-1.719-.839-2.812-2.52-.859-1.328-1.426-2.148-1.699-2.461-.273-.312-.938-.917-1.992-1.816-1.523-1.289-2.285-2.304-2.285-3.047 0-.546.312-.82.938-.82.898 0 2.07.225 3.516.674 1.444.448 2.518.927 3.221 1.434zm30.582-6.081c-.547 0-1.709-1.093-3.486-3.281-1.777-2.187-2.666-3.476-2.666-3.867l.586-.176c1.367 0 2.93.372 4.688 1.113 2.188.938 3.281 1.954 3.281 3.047 0 1.329-.156 2.129-.469 2.402-.664.234-1.309.489-1.934.762zm5.508 16.23a1.752 1.752 0 0 1-1.289.527c-1.133 0-2.393-.674-3.779-2.021-1.386-1.347-2.08-2.47-2.08-3.369 0-.429.215-.645.645-.645.312 0 .938.137 1.875.41.938.274 1.562.41 1.875.41 2.5-.429 6.328-2.539 11.484-6.328 3.164-2.344 7.402-5.781 12.715-10.312 4.258-3.633 6.543-5.449 6.855-5.449.234 0 .352.157.352.469 0 .665-.84 1.954-2.52 3.867-1.484 1.68-3.418 3.653-5.801 5.918a195.862 195.862 0 0 1-6.445 5.918c-1.719 1.523-5 4.004-9.844 7.441-2.109 1.485-3.457 2.539-4.043 3.164zm5.039-26.777c-1.172-.664-2.373-1.738-3.604-3.223-1.23-1.484-1.846-2.461-1.846-2.93l.234-.176.41.059c1.992 0 3.652.293 4.98.879 1.914.82 2.871 2.09 2.871 3.809 0 1.368-.508 2.051-1.523 2.051-.389-.001-.897-.156-1.522-.469z" fill="#fff" fill-rule="nonzero"/></svg>